<svg width="40" height="40" viewBox="0 0 40 40" fill="none" xmlns="http://www.w3.org/2000/svg">
<ellipse cx="20" cy="20" rx="20" ry="20" fill="white"/>
<path d="M19.3359 24.25L14.0234 18.9375C13.8411 18.7552 13.75 18.5339 13.75 18.2734C13.75 18.013 13.8411 17.7917 14.0234 17.6094L14.9219 16.75C15.1042 16.5677 15.3255 16.4766 15.5859 16.4766C15.8464 16.4766 16.0677 16.5677 16.25 16.75L20 20.5L23.75 16.75C23.9323 16.5677 24.1536 16.4766 24.4141 16.4766C24.6745 16.4766 24.8958 16.5677 25.0781 16.75L25.9766 17.6094C26.1589 17.7917 26.25 18.013 26.25 18.2734C26.25 18.5339 26.1589 18.7552 25.9766 18.9375L20.6641 24.25C20.4818 24.4323 20.2604 24.5234 20 24.5234C19.7396 24.5234 19.5182 24.4323 19.3359 24.25Z" fill="#333333"/>
</svg>
