<svg width="151" height="150" viewBox="0 0 151 150" fill="none" xmlns="http://www.w3.org/2000/svg">
<path d="M146.841 69.0789C145.434 69.0789 140.087 71.0526 137.273 72.1805C136.992 71.0526 135.866 70.2068 134.459 70.2068C133.052 70.2068 131.644 71.0526 131.644 72.1805L126.297 71.3346C125.453 59.7744 120.95 49.6241 113.915 41.4474L117.01 36.9361C117.855 37.5 119.543 37.5 120.387 36.3722C121.513 35.2444 121.795 33.8346 120.95 32.9887C123.765 31.8609 129.112 29.6053 129.956 28.4774C131.082 27.0677 130.237 24.2481 128.267 21.9925C126.016 20.0188 123.202 19.1729 121.795 20.3008C120.669 21.1466 118.417 26.5038 117.292 29.3233C116.447 28.7594 114.759 29.0414 113.915 29.8872C112.789 31.015 112.508 32.4248 113.352 33.2707L108.849 36.3722C100.688 29.3233 90.2749 24.812 79.0178 23.9662L78.1736 18.609C79.2993 18.3271 80.1435 17.1992 80.1435 15.7895C80.1435 14.3797 79.2993 13.2519 78.1736 12.9699C79.2993 10.1504 81.2692 4.79323 81.2692 3.38346C80.9878 1.40977 78.455 0 75.3593 0C72.2636 0 69.7308 1.40977 69.4493 3.38346C69.4493 4.79323 71.4193 10.1504 72.545 12.9699C71.4193 13.2519 70.5751 14.3797 70.5751 15.7895C70.5751 17.1992 71.4193 18.609 72.545 18.609L71.7008 23.9662C60.1623 24.812 50.031 29.3233 41.8696 36.3722L37.3668 33.2707C37.9296 32.4248 37.9296 30.7331 36.8039 29.8872C35.6782 28.7594 34.2711 28.4774 33.4268 29.3233C32.3011 26.5038 30.0497 21.4286 28.924 20.3008C27.5169 19.1729 24.7026 20.0188 22.7326 22.2744C20.4812 24.2481 19.637 27.0677 20.7627 28.7594C21.6069 29.8872 26.954 32.1429 29.7683 33.2707C29.2054 34.1165 29.4869 35.8083 30.3311 36.6541C31.4569 37.782 32.864 38.0639 33.7083 37.2181L36.8039 41.7293C29.7683 49.906 25.2655 60.3383 24.4212 71.6165L19.0741 72.4624C18.7927 71.3346 17.667 70.4887 16.2599 70.4887C14.8527 70.4887 13.727 71.3346 13.4456 72.4624C10.6313 71.3346 5.28424 69.3609 3.87711 69.3609C1.90713 69.6429 0.5 72.1805 0.5 75.282C0.5 78.3835 1.90713 80.9211 3.87711 81.203C5.28424 81.203 10.6313 79.2293 13.4456 78.1015C13.727 79.2293 14.8527 80.0752 16.2599 80.0752C17.667 80.0752 19.0741 79.2293 19.0741 78.1015L24.4212 78.9474C25.2655 90.5075 29.7683 100.658 36.8039 108.835L33.9897 113.064C33.1454 112.5 31.4569 112.5 30.6126 113.628C29.4869 114.756 29.2054 116.165 30.0497 117.011C27.2355 118.139 22.1698 120.395 21.0441 121.523C19.9184 122.932 20.7627 125.752 22.7326 128.008C24.9841 130.263 27.7983 131.109 29.2054 129.699C30.3311 128.853 32.5826 123.496 33.7083 120.677C34.5525 121.241 36.2411 120.959 37.0854 120.113C38.2111 118.985 38.4925 117.575 37.6482 116.729L42.151 113.628C50.3124 120.677 60.7251 125.188 71.9822 126.034L72.8265 131.391C71.7008 131.673 70.8565 132.801 70.8565 134.211C70.8565 135.62 71.7008 136.748 72.8265 137.03C71.7008 139.85 69.7308 145.207 69.7308 146.617C70.0122 148.59 72.545 150 75.6407 150C78.7364 150 81.2692 148.59 81.5507 146.617C81.5507 145.207 79.5807 139.85 78.455 137.03C79.5807 136.748 80.425 135.62 80.425 134.211C80.425 132.801 79.5807 131.391 78.455 131.391L79.2993 126.034C90.8377 125.188 100.969 120.677 109.13 113.628L113.633 116.729C113.07 117.575 113.07 119.267 114.196 120.113C115.322 121.241 116.729 121.523 117.573 120.677C118.699 123.496 120.95 128.853 122.076 129.699C123.483 130.827 126.297 129.981 128.549 128.008C130.8 125.752 131.644 122.932 130.237 121.523C129.393 120.395 124.046 118.139 121.232 117.011C121.795 116.165 121.513 114.474 120.669 113.628C119.543 112.5 118.136 112.218 117.292 113.064L114.196 108.553C121.232 100.376 125.735 89.9436 126.579 78.6654L131.926 77.8196C132.207 78.9474 133.333 79.7932 134.74 79.7932C136.147 79.7932 137.273 78.9474 137.554 77.8196C140.369 78.9474 145.716 80.9211 147.123 80.9211C149.093 80.6391 150.5 78.1015 150.5 75C149.937 72.1805 148.53 69.3609 146.841 69.0789ZM31.4569 76.9737C30.3311 76.9737 29.4869 76.1278 29.4869 75C29.4869 73.8722 30.3311 73.0263 31.4569 73.0263C32.5826 73.0263 33.4268 73.8722 33.4268 75C33.4268 76.1278 32.5826 76.9737 31.4569 76.9737ZM104.909 42.5752C105.753 41.7293 106.879 41.7293 107.723 42.5752C108.568 43.4211 108.568 44.5489 107.723 45.3947C106.879 46.2406 105.753 46.2406 104.909 45.3947C104.346 44.5489 104.346 43.4211 104.909 42.5752ZM75.3593 29.3233C76.485 29.3233 77.3293 30.1692 77.3293 31.297C77.3293 32.4248 76.485 33.2707 75.3593 33.2707C74.2336 33.2707 73.3893 32.4248 73.3893 31.297C73.3893 30.1692 74.2336 29.3233 75.3593 29.3233ZM42.9953 42.5752C43.8396 41.7293 44.9653 41.7293 45.8096 42.5752C46.6539 43.4211 46.6539 44.5489 45.8096 45.3947C44.9653 46.2406 43.8396 46.2406 42.9953 45.3947C42.4325 44.5489 42.4325 43.4211 42.9953 42.5752ZM48.061 50.7519L50.3124 53.0075C50.8752 53.5714 51.4381 53.5714 52.0009 53.2895L55.0966 56.391C54.2523 58.3647 55.0966 61.4662 57.6295 64.0038C60.4437 66.8233 64.3837 67.6692 66.0722 65.9774C63.8208 68.2331 62.4137 71.3346 62.4137 74.718V73.8722H51.4381C51.1567 73.8722 50.8752 73.5902 50.8752 73.0263C50.8752 72.4624 51.1567 72.1805 51.4381 72.1805H62.9766V71.8985C62.9766 71.0526 62.1323 70.2068 61.288 70.2068H50.3124C49.7495 70.2068 48.3424 71.8985 47.4981 73.3083H44.121C43.8396 72.7444 43.2767 72.1805 42.7139 72.1805H39.0554C39.6182 64.2857 42.7139 56.6729 48.061 50.7519ZM45.8096 107.425C44.9653 108.271 43.8396 108.271 42.9953 107.425C42.151 106.579 42.151 105.451 42.9953 104.605C43.8396 103.759 44.9653 103.759 45.8096 104.605C46.6539 105.451 46.6539 106.579 45.8096 107.425ZM48.061 99.2481C42.7139 93.3271 39.3368 85.4323 38.7739 76.9737H42.4325C42.9953 76.9737 43.8396 76.4098 43.8396 75.8459H46.9353C47.7796 77.2556 49.1867 79.2293 49.7495 79.2293H60.7251C61.5694 79.2293 62.4137 78.6654 62.4137 77.8196V77.2556H51.4381C51.1567 77.2556 50.8752 76.9737 50.8752 76.4098C50.8752 75.8459 51.1567 75.5639 51.4381 75.5639H62.9766V74.718C62.9766 78.1015 64.3837 81.203 66.6351 83.4587C64.9465 81.7669 61.0066 82.6128 58.1923 85.4323C55.6595 87.9699 54.8152 91.0714 55.6595 93.0451L52.5638 96.1466C52.0009 95.8647 51.1567 95.8647 50.8752 96.4286L48.061 99.2481ZM75.3593 120.959C74.2336 120.959 73.3893 120.113 73.3893 118.985C73.3893 117.857 74.2336 117.011 75.3593 117.011C76.485 117.011 77.3293 117.857 77.3293 118.985C77.3293 120.113 76.485 120.959 75.3593 120.959ZM107.723 107.425C106.879 108.271 105.753 108.271 104.909 107.425C104.065 106.579 104.065 105.451 104.909 104.605C105.753 103.759 106.879 103.759 107.723 104.605C108.568 105.451 108.568 106.579 107.723 107.425ZM102.658 99.2481L100.406 96.9925C99.8433 96.4286 99.2805 96.4286 98.7176 96.7105L95.622 93.609C96.4662 91.6353 95.6219 88.5338 93.0891 85.9962C90.2749 83.1767 86.3349 82.3308 84.6463 84.0226C82.9578 85.7143 83.8021 89.6617 86.6163 92.4812C89.1492 95.0188 92.2448 95.8647 94.2148 95.0188L97.3105 98.1203C97.0291 98.6842 97.0291 99.5301 97.5919 99.812L99.8433 102.068C93.9334 107.425 86.3349 110.808 77.8921 111.372V107.707C77.8921 107.143 77.3293 106.297 76.7664 106.297V102.914C77.8921 102.068 79.8621 100.658 79.8621 100.094V89.0978C79.8621 88.2519 79.0178 87.406 78.1736 87.406H77.8921V98.9662C77.8921 99.2481 77.6107 99.5301 77.0479 99.5301C76.485 99.5301 76.2036 99.2481 76.2036 98.9662V87.688H75.3593H74.515V98.9662C74.515 99.2481 74.2336 99.5301 73.6707 99.5301C73.1079 99.5301 72.8265 99.2481 72.8265 98.9662V87.688H72.2636C71.4193 87.688 70.8565 88.5338 70.8565 89.3797V100.376C70.8565 100.94 72.8265 102.35 74.2336 103.195V106.297C73.6707 106.579 73.1079 107.143 73.1079 107.707V111.372C64.6651 110.808 56.7852 107.425 50.8752 102.068L53.1266 99.812C53.6895 99.2481 53.6895 98.6842 53.4081 98.1203L56.5038 95.0188C58.4737 95.8647 61.5694 95.0188 64.1023 92.4812C66.9165 89.6617 67.7608 85.7143 66.0722 84.0226C68.3236 86.2782 71.4193 87.688 74.7964 87.688C81.8321 87.688 87.1792 82.0489 87.1792 75.282C87.1792 68.2331 81.5507 62.8759 74.7964 62.8759C71.4193 62.8759 68.3236 64.2857 66.0722 66.5414C67.7608 64.8496 66.9165 60.9023 64.1023 58.0827C61.5694 55.5451 58.4737 54.6993 56.5038 55.5451L53.4081 52.4436C53.6895 51.8797 53.6895 51.0338 53.1266 50.7519L50.8752 48.4962C56.7852 43.1391 64.6651 39.7556 73.1079 39.1917V42.8571C73.1079 43.4211 73.6707 44.2669 74.2336 44.2669V47.3684C72.8265 48.2143 70.8565 49.6241 70.8565 50.188V61.1842C70.8565 62.0301 71.4193 62.8759 72.2636 62.8759H72.8265V51.0338C72.8265 50.7519 73.1079 50.4699 73.6707 50.4699C74.2336 50.4699 74.515 50.7519 74.515 51.0338V62.594H75.3593H76.2036V51.0338C76.2036 50.7519 76.485 50.4699 77.0479 50.4699C77.6107 50.4699 77.8921 50.7519 77.8921 51.0338V62.594H78.1736C79.0178 62.594 79.8621 61.7481 79.8621 60.9023V49.906C79.8621 49.3421 78.1736 47.9323 76.7664 47.0865V43.703C77.3293 43.4211 77.8921 42.8571 77.8921 42.2932V38.6278C86.3349 39.1917 93.9334 42.5752 99.8433 47.6504L97.5919 49.906C97.0291 50.4699 97.0291 51.0338 97.3105 51.5978L94.2148 54.6992C92.2448 53.8534 89.1492 54.6993 86.6163 57.2369C83.8021 60.0564 82.9578 64.0038 84.6463 65.6955C86.3349 67.3872 90.2749 66.5414 93.0891 63.7218C95.6219 61.1842 96.4662 58.0827 95.622 56.109L98.7176 53.0075C99.2805 53.2895 100.125 53.2895 100.406 52.7256L102.658 50.4699C108.005 56.391 111.382 64.0038 111.945 72.4624H108.286C107.723 72.4624 106.879 73.0263 106.879 73.5902H103.502C102.658 72.4624 101.25 70.4887 100.688 70.4887H89.712C88.8677 70.4887 88.0235 71.3346 88.0235 72.1805V72.4624H99.2805C99.5619 72.4624 99.8433 72.7444 99.8433 73.3083C99.8433 73.8722 99.5619 74.1541 99.2805 74.1541H88.0235V75.5639H99.2805C99.5619 75.5639 99.8433 75.8459 99.8433 76.4098C99.8433 76.9737 99.5619 77.2556 99.2805 77.2556H88.0235V77.8196C88.0235 78.6654 88.8677 79.2293 89.712 79.2293H100.688C101.25 79.2293 102.658 77.2556 103.502 75.8459H106.598C106.879 76.4098 107.442 76.9737 108.005 76.9737H111.663C111.382 85.7143 108.005 93.3271 102.658 99.2481ZM67.4794 75C67.4794 70.7707 70.8565 67.1053 75.3593 67.1053C79.5807 67.1053 83.2392 70.4887 83.2392 75C83.2392 79.2293 79.8621 82.8947 75.3593 82.8947C71.1379 82.8947 67.4794 79.5113 67.4794 75ZM119.262 76.9737C118.136 76.9737 117.292 76.1278 117.292 75C117.292 73.8722 118.136 73.0263 119.262 73.0263C120.387 73.0263 121.232 73.8722 121.232 75C121.232 76.1278 120.387 76.9737 119.262 76.9737Z" fill="#FFD600"/>
</svg>
