<svg xmlns="http://www.w3.org/2000/svg" width="158" height="[[0 0 0 ... 0 0 0]
 [0 0 0 ... 0 0 0]
 [0 0 0 ... 0 0 0]
 ...
 [0 0 0 ... 0 0 0]
 [0 0 0 ... 0 0 0]
 [0 0 0 ... 0 0 0]]" viewBox="0 0 158 [[0 0 0 ... 0 0 0]
 [0 0 0 ... 0 0 0]
 [0 0 0 ... 0 0 0]
 ...
 [0 0 0 ... 0 0 0]
 [0 0 0 ... 0 0 0]
 [0 0 0 ... 0 0 0]]">
<g fill="#F2C400" stroke="none">
<path d="M 10 57 9 61 10 63 15 67 24 67 25 66 29 66 33 64 36 64 40 62 45 62 49 66 49 76 48 77 48 81 47 82 47 85 46 86 46 95 47 96 47 98 52 103 58 106 61 106 62 107 70 107 71 106 74 106 78 103 79 101 79 97 77 93 75 91 74 91 71 96 70 96 68 94 68 90 67 89 67 81 66 80 66 77 60 66 48 54 46 54 45 53 34 53 33 54 27 55 19 59 15 59 12 56 Z " fill-rule="evenodd" />
</g>
<g fill="#000000" stroke="none">
<path d="M 81 222 81 223 82 223 82 222 Z " fill-rule="evenodd" />
<path d="M 51 208 51 210 54 214 55 214 53 212 54 211 60 214 66 209 66 208 65 209 63 209 62 208 54 209 52 207 53 206 Z " fill-rule="evenodd" />
<path d="M 80 204 78 203 76 205 80 205 Z " fill-rule="evenodd" />
<path d="M 108 117 104 118 99 123 97 121 90 121 89 122 89 125 91 126 92 128 89 131 87 129 87 127 86 127 87 129 87 132 88 133 88 138 89 139 89 149 90 150 90 185 89 186 89 191 87 193 81 193 80 194 75 194 74 195 67 196 62 199 60 199 58 201 58 202 62 199 66 199 67 198 71 198 72 197 76 197 77 196 83 196 85 198 87 198 88 197 90 198 90 199 86 203 85 203 83 201 83 200 82 200 82 202 85 205 84 207 85 212 84 213 82 213 82 215 81 216 76 216 75 215 71 215 70 214 68 214 67 216 70 218 75 218 76 219 83 219 84 220 104 220 105 221 105 223 107 223 107 222 109 221 110 219 114 220 115 218 119 219 120 218 122 218 126 215 130 215 130 214 135 210 135 207 134 205 129 200 123 197 121 197 117 195 114 195 113 194 100 193 97 190 97 179 96 178 96 144 97 143 97 135 98 134 98 130 99 129 99 127 100 126 101 122 103 120 108 118 Z M 101 213 105 210 107 210 110 206 111 207 116 207 118 209 118 212 120 214 120 215 116 217 110 217 109 218 106 218 104 216 105 214 102 214 Z M 90 189 92 188 96 191 97 193 97 198 101 198 100 195 102 194 104 196 104 197 107 197 109 199 115 199 116 198 118 198 119 199 124 199 128 201 133 206 133 209 131 210 130 209 124 208 123 207 116 207 110 204 106 204 104 202 104 201 97 204 95 201 93 201 92 200 92 195 90 195 89 194 90 192 Z M 92 131 94 131 95 132 95 140 94 141 94 145 93 146 91 145 91 135 90 134 90 133 Z" fill-rule="evenodd" />
<path d="M 80 117 80 118 81 118 85 123 85 120 83 118 Z " fill-rule="evenodd" />
<path d="M 52 109 53 111 57 113 63 114 64 115 67 115 68 116 72 114 74 114 76 116 76 117 76 114 79 110 77 110 76 111 59 111 58 110 Z " fill-rule="evenodd" />
<path d="M 50 109 Z " fill-rule="evenodd" />
<path d="M 147 98 Z " fill-rule="evenodd" />
<path d="M 133 97 133 101 134 101 134 97 Z " fill-rule="evenodd" />
<path d="M 148 96 Z " fill-rule="evenodd" />
<path d="M 73 90 73 91 Z " fill-rule="evenodd" />
<path d="M 41 84 40 85 40 92 41 93 41 97 42 99 41 100 39 99 38 95 37 94 37 89 36 89 37 97 38 99 46 107 48 108 45 105 46 104 46 102 45 102 42 98 42 95 44 91 44 88 46 86 44 84 Z " fill-rule="evenodd" />
<path d="M 98 80 98 81 104 81 104 80 Z " fill-rule="evenodd" />
<path d="M 47 75 45 75 40 72 39 73 39 80 40 81 45 76 47 76 Z " fill-rule="evenodd" />
<path d="M 40 65 40 67 42 69 46 70 48 68 48 65 46 63 43 63 Z " fill-rule="evenodd" />
<path d="M 38 63 37 63 35 66 35 85 36 85 36 71 38 70 37 68 37 65 Z " fill-rule="evenodd" />
<path d="M 146 65 141 61 139 61 135 59 132 59 131 58 128 58 127 57 127 54 124 54 125 58 126 59 128 59 134 65 134 67 135 68 134 70 132 70 131 69 127 69 126 68 121 68 120 67 111 67 110 66 80 66 79 68 77 68 76 67 72 67 72 68 74 68 75 69 77 68 80 68 82 72 91 72 92 73 96 73 98 75 96 77 93 77 93 78 98 78 99 77 107 77 108 78 108 80 110 82 115 82 117 81 118 82 118 84 120 83 124 83 125 82 131 81 132 80 133 80 135 82 135 83 131 86 125 87 124 88 120 88 119 89 115 89 114 90 111 90 110 91 105 91 104 90 102 90 101 91 81 91 81 93 79 94 79 95 85 95 86 96 85 98 81 99 81 100 84 102 87 102 88 103 88 104 87 105 85 105 85 106 89 106 90 107 89 109 85 109 84 111 85 112 87 111 89 111 90 112 89 115 88 116 86 116 86 118 87 119 89 118 98 118 98 117 97 117 95 115 97 113 101 115 103 115 104 114 108 114 108 112 110 110 111 110 113 112 113 113 117 113 118 114 117 116 111 116 111 117 116 117 117 116 120 116 121 115 127 114 140 107 141 105 139 106 138 105 138 97 137 96 138 94 138 91 139 90 139 87 143 82 145 84 145 95 146 94 146 90 147 89 150 90 150 78 148 78 147 77 147 72 148 71 150 71 150 70 148 70 147 71 146 70 141 73 139 72 139 71 141 69 144 68 146 66 Z M 119 113 121 112 122 114 120 115 Z M 93 111 95 109 97 110 96 112 94 112 Z M 136 90 136 95 137 96 137 103 135 104 132 108 130 108 126 110 119 110 118 111 115 111 109 108 109 106 111 103 110 102 115 99 114 98 115 96 122 95 122 94 125 91 130 90 133 87 Z M 145 79 140 83 139 82 138 83 137 82 137 80 139 78 143 77 Z M 136 77 137 76 138 78 137 79 Z M 133 73 133 74 131 76 128 76 127 77 125 77 124 76 125 74 131 73 132 72 Z M 107 72 112 69 115 69 116 70 115 73 116 73 117 75 122 75 123 77 122 78 119 78 117 77 116 79 110 79 109 78 110 75 108 74 Z" fill-rule="evenodd" />
<path d="M 117 53 117 54 121 54 121 53 Z " fill-rule="evenodd" />
<path d="M 114 52 103 52 102 51 86 51 85 52 73 52 72 53 65 53 64 54 60 54 59 55 52 56 52 57 54 57 55 58 55 60 57 60 60 58 63 58 64 56 68 57 69 55 71 55 73 53 79 53 80 54 83 54 86 56 86 58 103 58 105 57 107 54 111 54 112 53 114 53 Z " fill-rule="evenodd" />
</g>
</svg>